<svg id="Layer_1" data-name="Layer 1" xmlns="http://www.w3.org/2000/svg" viewBox="0 0 127.27 27.09"><defs><style>.cls-1{fill:#554ca0;fill-rule:evenodd;}</style></defs><path id="temporary_teleport_logo" data-name="temporary teleport logo" class="cls-1" d="M18.89.78a.53.53,0,0,1,.41.35l0,.06.62,3.17a9.66,9.66,0,0,1,2.31,1.28l.25.2,3.11-1.07a.5.5,0,0,1,.57.15A12,12,0,0,1,28.62,9.1a.44.44,0,0,1-.1.51l-.05,0L26,11.76a8,8,0,0,1,.12,1.47,9.28,9.28,0,0,1-.07,1.19l-.05.29,2.47,2.1a.45.45,0,0,1,.15.56,12,12,0,0,1-2.44,4.18.49.49,0,0,1-.5.17l-.07,0L22.5,20.63A9.67,9.67,0,0,1,20.25,22l-.31.12-.62,3.18a.52.52,0,0,1-.43.41,14.11,14.11,0,0,1-2.44.23A14.2,14.2,0,0,1,14,25.69a.54.54,0,0,1-.41-.35l0-.06L13,22.1a9,9,0,0,1-2.34-1.29l-.23-.18L7.29,21.7a.51.51,0,0,1-.57-.15,12.14,12.14,0,0,1-2.44-4.18.46.46,0,0,1,.1-.51l0-.05,2.47-2.1a8,8,0,0,1-.11-1.48,9.23,9.23,0,0,1,.06-1.18l.05-.29L4.43,9.65a.45.45,0,0,1-.15-.55A12.14,12.14,0,0,1,6.72,4.92a.5.5,0,0,1,.5-.17l.07,0L10.4,5.84a8.78,8.78,0,0,1,2.29-1.36L13,4.36l.61-3.17A.53.53,0,0,1,14,.78,12.52,12.52,0,0,1,18.89.78Zm69,8.5a3.77,3.77,0,0,1,1.73.41A4,4,0,0,1,91,10.87a5.93,5.93,0,0,1,.9,1.89,8.87,8.87,0,0,1,.33,2.53,7.66,7.66,0,0,1-.38,2.44,6.26,6.26,0,0,1-1,1.95A4.89,4.89,0,0,1,89.16,21a4.64,4.64,0,0,1-2.08.47,4,4,0,0,1-1.56-.27,3.86,3.86,0,0,1-1.15-.7h0V25H80.8V9.51h2.32a1.09,1.09,0,0,1,.45.15.76.76,0,0,1,.31.44h0l.27.86.17-.18a5.37,5.37,0,0,1,.57-.5,5.27,5.27,0,0,1,.85-.53,4.92,4.92,0,0,1,1-.34A5.1,5.1,0,0,1,87.86,9.28Zm-33.53.05a6.29,6.29,0,0,1,2.17.36,4.62,4.62,0,0,1,1.69,1.06,4.72,4.72,0,0,1,1.1,1.69,6,6,0,0,1,.4,2.27,3.75,3.75,0,0,1,0,.64,1,1,0,0,1-.12.4.44.44,0,0,1-.25.2,1.12,1.12,0,0,1-.4.06H52l0,.19a3.2,3.2,0,0,0,.88,1.95,2.75,2.75,0,0,0,1.9.66,3.37,3.37,0,0,0,1.07-.15,5.52,5.52,0,0,0,.8-.33l.64-.33a1.48,1.48,0,0,1,.62-.14.74.74,0,0,1,.64.3h0l1,1.26-.16.17a5,5,0,0,1-1,.84,6,6,0,0,1-1.31.61,7.31,7.31,0,0,1-1.35.31,9.63,9.63,0,0,1-1.28.09A6.71,6.71,0,0,1,52.14,21a5.31,5.31,0,0,1-1.92-1.19,5.69,5.69,0,0,1-1.3-2,7.25,7.25,0,0,1-.48-2.74,6.13,6.13,0,0,1,.41-2.23A5.4,5.4,0,0,1,50,11.05a5.62,5.62,0,0,1,1.85-1.26A6.24,6.24,0,0,1,54.33,9.33Zm19.07,0a6.24,6.24,0,0,1,2.16.36,4.54,4.54,0,0,1,1.69,1.06,4.87,4.87,0,0,1,1.11,1.69,6.21,6.21,0,0,1,.39,2.27,5.48,5.48,0,0,1,0,.64,1,1,0,0,1-.13.4.42.42,0,0,1-.24.2A1.16,1.16,0,0,1,78,16H71.07l0,.19A3.15,3.15,0,0,0,72,18.15a2.73,2.73,0,0,0,1.9.66A3.41,3.41,0,0,0,75,18.66a6,6,0,0,0,.8-.33l.64-.33a1.48,1.48,0,0,1,.62-.14.75.75,0,0,1,.64.3h0l1,1.26-.16.17a5,5,0,0,1-1,.84,5.75,5.75,0,0,1-1.31.61,7,7,0,0,1-1.34.31,9.74,9.74,0,0,1-1.28.09A6.81,6.81,0,0,1,71.2,21a5.31,5.31,0,0,1-1.92-1.19,5.84,5.84,0,0,1-1.3-2,7.45,7.45,0,0,1-.47-2.74,5.93,5.93,0,0,1,.41-2.23,5.4,5.4,0,0,1,1.17-1.85,5.62,5.62,0,0,1,1.85-1.26A6.17,6.17,0,0,1,73.4,9.33Zm26,0a7,7,0,0,1,2.47.42A5.58,5.58,0,0,1,103.8,11a5.45,5.45,0,0,1,1.24,1.9,6.83,6.83,0,0,1,.44,2.5,7,7,0,0,1-.44,2.54A5.3,5.3,0,0,1,101.88,21a7,7,0,0,1-2.47.43A7.07,7.07,0,0,1,96.92,21,5.55,5.55,0,0,1,95,19.8a5.49,5.49,0,0,1-1.26-1.91,7,7,0,0,1-.44-2.54,6.83,6.83,0,0,1,.44-2.5A5.36,5.36,0,0,1,95,11a5.53,5.53,0,0,1,1.93-1.2A7.07,7.07,0,0,1,99.41,9.33ZM121.19,6.1V9.53h2.9v2.4h-2.9v5.95a1,1,0,0,0,.2.56.68.68,0,0,0,.58.27,1.49,1.49,0,0,0,.33,0l.23-.09.18-.09a.45.45,0,0,1,.2,0,.4.4,0,0,1,.26.07.94.94,0,0,1,.2.23h0l1.08,1.67-.17.12a5,5,0,0,1-1.38.64,6.23,6.23,0,0,1-1.78.26,4.28,4.28,0,0,1-1.5-.25,2.91,2.91,0,0,1-1.09-.69,3,3,0,0,1-.68-1.08,4.19,4.19,0,0,1-.23-1.42h0V11.93h-1.1a.69.69,0,0,1-.38-.17.67.67,0,0,1-.2-.52h0V9.87l1.9-.36.7-2.86,0-.09a.71.71,0,0,1,.76-.46h1.86ZM47.61,4.75v3H42.9V21.25H39V7.79H34.3v-3Zm17.8-.45v17H61.85V4.3Zm48.63,5a2.06,2.06,0,0,1,1.31.39h0l-.46,2.58,0,.09a.44.44,0,0,1-.16.25.65.65,0,0,1-.37.09,2.91,2.91,0,0,1-.46,0,3.86,3.86,0,0,0-.66-.05A2.45,2.45,0,0,0,111,14.05h0v7.2h-3.57V9.51h2.25a1.34,1.34,0,0,1,.31.05.67.67,0,0,1,.49.39,2.66,2.66,0,0,1,.11.39h0l.19,1.1.15-.22a5.71,5.71,0,0,1,1.32-1.36A3.08,3.08,0,0,1,114,9.28ZM16.45,5.81a7.43,7.43,0,1,0,7.42,7.42A7.42,7.42,0,0,0,16.45,5.81ZM86.62,12a3.11,3.11,0,0,0-.71.07,2.66,2.66,0,0,0-.58.21,2.15,2.15,0,0,0-.5.35,4.23,4.23,0,0,0-.46.48h0v5l.11.12a2.23,2.23,0,0,0,.76.5,2.94,2.94,0,0,0,1,.17,2.12,2.12,0,0,0,.91-.19,1.9,1.9,0,0,0,.72-.62,3.2,3.2,0,0,0,.47-1.1,6.49,6.49,0,0,0,.18-1.65,7.74,7.74,0,0,0-.14-1.57,3,3,0,0,0-.39-1,1.43,1.43,0,0,0-.59-.56A1.64,1.64,0,0,0,86.62,12Zm12.79,0a2.09,2.09,0,0,0-1.85.85,4.63,4.63,0,0,0-.59,2.6,4.65,4.65,0,0,0,.59,2.6,2.07,2.07,0,0,0,1.85.85,2,2,0,0,0,1.81-.85,4.66,4.66,0,0,0,.58-2.6,4.63,4.63,0,0,0-.58-2.6A2.06,2.06,0,0,0,99.41,11.93ZM21.15,10V12.2H17.57v5.31H15.33V12.2H11.76V10ZM54.4,11.75a2.17,2.17,0,0,0-1.6.57A3,3,0,0,0,52,14h4.45a3.1,3.1,0,0,0-.11-.81,1.84,1.84,0,0,0-.36-.71,1.64,1.64,0,0,0-.65-.5A2.18,2.18,0,0,0,54.4,11.75Zm19.06,0a2.15,2.15,0,0,0-1.59.57A3,3,0,0,0,71.11,14h4.45a3.1,3.1,0,0,0-.11-.81,1.84,1.84,0,0,0-.36-.71,1.64,1.64,0,0,0-.65-.5A2.22,2.22,0,0,0,73.46,11.75Z"/></svg>